<mxfile host="Electron" modified="2021-06-06T21:20:15.490Z" agent="5.0 (Windows NT 10.0; Win64; x64) AppleWebKit/537.36 (KHTML, like Gecko) draw.io/14.6.13 Chrome/89.0.4389.128 Electron/12.0.7 Safari/537.36" etag="VT76OitQAzIle-y4ES04" compressed="false" version="14.6.13" type="device">
  <diagram id="ILfZTgWtklzDKXnBwvd6" name="Page-1">
    <mxGraphModel dx="1284" dy="774" grid="1" gridSize="10" guides="1" tooltips="0" connect="1" arrows="1" fold="1" page="1" pageScale="1" pageWidth="2000" pageHeight="2000" math="0" shadow="0">
      <root>
        <mxCell id="0" />
        <mxCell id="1" parent="0" />
        <mxCell id="gcxv_RrHrt8UUlQx9vzb-1" value="Admin" style="whiteSpace=wrap;html=1;" parent="1" vertex="1">
          <mxGeometry x="740" y="595" width="120" height="40" as="geometry" />
        </mxCell>
        <mxCell id="gcxv_RrHrt8UUlQx9vzb-3" value="&lt;u&gt;adminID&lt;/u&gt;" style="ellipse;whiteSpace=wrap;html=1;" parent="1" vertex="1">
          <mxGeometry x="580" y="595" width="120" height="40" as="geometry" />
        </mxCell>
        <mxCell id="EvyBAaTnidb9Uw1IQr1U-3" value="Agency" style="whiteSpace=wrap;html=1;" parent="1" vertex="1">
          <mxGeometry x="1139" y="595" width="120" height="40" as="geometry" />
        </mxCell>
        <mxCell id="P_dKjVhCxqi_HsecTU9F-4" value="Client" style="whiteSpace=wrap;html=1;" parent="1" vertex="1">
          <mxGeometry x="1139" y="955" width="120" height="40" as="geometry" />
        </mxCell>
        <mxCell id="P_dKjVhCxqi_HsecTU9F-5" value="Cargo" style="whiteSpace=wrap;html=1;" parent="1" vertex="1">
          <mxGeometry x="1138" y="1315" width="120" height="40" as="geometry" />
        </mxCell>
        <mxCell id="P_dKjVhCxqi_HsecTU9F-6" value="Payment" style="whiteSpace=wrap;html=1;" parent="1" vertex="1">
          <mxGeometry x="740" y="955" width="120" height="40" as="geometry" />
        </mxCell>
        <mxCell id="7WQ11-BlUc4FyiO0YuiX-1" value="manages" style="rhombus;whiteSpace=wrap;html=1;" parent="1" vertex="1">
          <mxGeometry x="938" y="575" width="80" height="80" as="geometry" />
        </mxCell>
        <mxCell id="a1ZsB-_i2M54ewCJke13-5" value="" style="endArrow=none;html=1;exitX=0;exitY=0.5;exitDx=0;exitDy=0;entryX=1;entryY=0.5;entryDx=0;entryDy=0;" parent="1" source="gcxv_RrHrt8UUlQx9vzb-1" target="gcxv_RrHrt8UUlQx9vzb-3" edge="1">
          <mxGeometry width="50" height="50" relative="1" as="geometry">
            <mxPoint x="890" y="475" as="sourcePoint" />
            <mxPoint x="710" y="585" as="targetPoint" />
          </mxGeometry>
        </mxCell>
        <mxCell id="wmZ-JTiRJCbKy_4Knuoe-12" value="" style="endArrow=none;html=1;entryX=1;entryY=1;entryDx=0;entryDy=0;exitX=0;exitY=0;exitDx=0;exitDy=0;" parent="1" source="EvyBAaTnidb9Uw1IQr1U-3" target="wmZ-JTiRJCbKy_4Knuoe-11" edge="1">
          <mxGeometry width="50" height="50" relative="1" as="geometry">
            <mxPoint x="1169" y="575" as="sourcePoint" />
            <mxPoint x="1169" y="675" as="targetPoint" />
          </mxGeometry>
        </mxCell>
        <mxCell id="a1ZsB-_i2M54ewCJke13-7" value="" style="endArrow=none;html=1;exitX=0.5;exitY=1;exitDx=0;exitDy=0;entryX=0.5;entryY=0;entryDx=0;entryDy=0;" parent="1" source="a1ZsB-_i2M54ewCJke13-14" target="gcxv_RrHrt8UUlQx9vzb-1" edge="1">
          <mxGeometry width="50" height="50" relative="1" as="geometry">
            <mxPoint x="840" y="655" as="sourcePoint" />
            <mxPoint x="760" y="655" as="targetPoint" />
          </mxGeometry>
        </mxCell>
        <mxCell id="a1ZsB-_i2M54ewCJke13-8" value="" style="endArrow=none;html=1;entryX=0.5;entryY=1;entryDx=0;entryDy=0;exitX=0.5;exitY=0;exitDx=0;exitDy=0;" parent="1" source="P_dKjVhCxqi_HsecTU9F-4" target="wmZ-JTiRJCbKy_4Knuoe-2" edge="1">
          <mxGeometry width="50" height="50" relative="1" as="geometry">
            <mxPoint x="1499" y="645" as="sourcePoint" />
            <mxPoint x="1419" y="645" as="targetPoint" />
          </mxGeometry>
        </mxCell>
        <mxCell id="a1ZsB-_i2M54ewCJke13-9" value="" style="endArrow=none;html=1;entryX=0.5;entryY=1;entryDx=0;entryDy=0;exitX=0.5;exitY=0;exitDx=0;exitDy=0;" parent="1" source="wmZ-JTiRJCbKy_4Knuoe-2" target="EvyBAaTnidb9Uw1IQr1U-3" edge="1">
          <mxGeometry width="50" height="50" relative="1" as="geometry">
            <mxPoint x="1379" y="515" as="sourcePoint" />
            <mxPoint x="1299" y="515" as="targetPoint" />
          </mxGeometry>
        </mxCell>
        <mxCell id="a1ZsB-_i2M54ewCJke13-10" value="" style="endArrow=none;html=1;entryX=0.5;entryY=1;entryDx=0;entryDy=0;exitX=0.5;exitY=0;exitDx=0;exitDy=0;" parent="1" source="P_dKjVhCxqi_HsecTU9F-5" target="wmZ-JTiRJCbKy_4Knuoe-3" edge="1">
          <mxGeometry width="50" height="50" relative="1" as="geometry">
            <mxPoint x="818" y="1285" as="sourcePoint" />
            <mxPoint x="1018" y="1375" as="targetPoint" />
          </mxGeometry>
        </mxCell>
        <mxCell id="a1ZsB-_i2M54ewCJke13-11" value="" style="endArrow=none;html=1;exitX=1;exitY=0.5;exitDx=0;exitDy=0;entryX=0;entryY=0.5;entryDx=0;entryDy=0;" parent="1" target="P_dKjVhCxqi_HsecTU9F-4" edge="1">
          <mxGeometry width="50" height="50" relative="1" as="geometry">
            <mxPoint x="1019" y="975" as="sourcePoint" />
            <mxPoint x="1129" y="995" as="targetPoint" />
          </mxGeometry>
        </mxCell>
        <mxCell id="OjOYmV3JiXY7nATCYOeL-18" value="" style="endArrow=none;html=1;exitX=0;exitY=0.5;exitDx=0;exitDy=0;entryX=1;entryY=0.5;entryDx=0;entryDy=0;" parent="1" target="P_dKjVhCxqi_HsecTU9F-6" edge="1">
          <mxGeometry width="50" height="50" relative="1" as="geometry">
            <mxPoint x="1000" y="975" as="sourcePoint" />
            <mxPoint x="1190" y="985" as="targetPoint" />
          </mxGeometry>
        </mxCell>
        <mxCell id="a1ZsB-_i2M54ewCJke13-12" value="" style="endArrow=none;html=1;entryX=0.5;entryY=0;entryDx=0;entryDy=0;exitX=0.5;exitY=1;exitDx=0;exitDy=0;" parent="1" source="P_dKjVhCxqi_HsecTU9F-4" target="wmZ-JTiRJCbKy_4Knuoe-3" edge="1">
          <mxGeometry width="50" height="50" relative="1" as="geometry">
            <mxPoint x="1289" y="1035" as="sourcePoint" />
            <mxPoint x="1239" y="855" as="targetPoint" />
          </mxGeometry>
        </mxCell>
        <mxCell id="7WQ11-BlUc4FyiO0YuiX-9" value="" style="endArrow=none;html=1;entryX=1;entryY=0.5;entryDx=0;entryDy=0;exitX=0;exitY=0.5;exitDx=0;exitDy=0;" parent="1" source="EvyBAaTnidb9Uw1IQr1U-3" edge="1">
          <mxGeometry width="50" height="50" relative="1" as="geometry">
            <mxPoint x="1098" y="615" as="sourcePoint" />
            <mxPoint x="1018" y="615" as="targetPoint" />
          </mxGeometry>
        </mxCell>
        <mxCell id="OjOYmV3JiXY7nATCYOeL-63" value="" style="endArrow=none;html=1;entryX=0;entryY=0.5;entryDx=0;entryDy=0;exitX=1;exitY=0.5;exitDx=0;exitDy=0;" parent="1" source="gcxv_RrHrt8UUlQx9vzb-1" target="7WQ11-BlUc4FyiO0YuiX-1" edge="1">
          <mxGeometry width="50" height="50" relative="1" as="geometry">
            <mxPoint x="1190" y="625" as="sourcePoint" />
            <mxPoint x="1110" y="625" as="targetPoint" />
          </mxGeometry>
        </mxCell>
        <mxCell id="a1ZsB-_i2M54ewCJke13-1" value="1" style="text;html=1;align=center;verticalAlign=middle;resizable=0;points=[];autosize=1;strokeColor=none;" parent="1" vertex="1">
          <mxGeometry x="899" y="595" width="20" height="20" as="geometry" />
        </mxCell>
        <mxCell id="a1ZsB-_i2M54ewCJke13-2" value="M" style="text;html=1;align=center;verticalAlign=middle;resizable=0;points=[];autosize=1;strokeColor=none;" parent="1" vertex="1">
          <mxGeometry x="1018" y="595" width="30" height="20" as="geometry" />
        </mxCell>
        <mxCell id="a1ZsB-_i2M54ewCJke13-14" value="adminPassword" style="ellipse;whiteSpace=wrap;html=1;" parent="1" vertex="1">
          <mxGeometry x="740" y="475" width="120" height="40" as="geometry" />
        </mxCell>
        <mxCell id="wmZ-JTiRJCbKy_4Knuoe-2" value="manages" style="rhombus;whiteSpace=wrap;html=1;" parent="1" vertex="1">
          <mxGeometry x="1159" y="755" width="80" height="80" as="geometry" />
        </mxCell>
        <mxCell id="wmZ-JTiRJCbKy_4Knuoe-3" value="has" style="rhombus;whiteSpace=wrap;html=1;" parent="1" vertex="1">
          <mxGeometry x="1159" y="1115" width="80" height="80" as="geometry" />
        </mxCell>
        <mxCell id="wmZ-JTiRJCbKy_4Knuoe-4" value="does" style="rhombus;whiteSpace=wrap;html=1;" parent="1" vertex="1">
          <mxGeometry x="939" y="935" width="80" height="80" as="geometry" />
        </mxCell>
        <mxCell id="wmZ-JTiRJCbKy_4Knuoe-11" value="&lt;u&gt;agencyID&lt;/u&gt;" style="ellipse;whiteSpace=wrap;html=1;" parent="1" vertex="1">
          <mxGeometry x="999" y="515" width="120" height="40" as="geometry" />
        </mxCell>
        <mxCell id="wmZ-JTiRJCbKy_4Knuoe-13" value="M" style="text;html=1;align=center;verticalAlign=middle;resizable=0;points=[];autosize=1;strokeColor=none;" parent="1" vertex="1">
          <mxGeometry x="890" y="955" width="30" height="20" as="geometry" />
        </mxCell>
        <mxCell id="wmZ-JTiRJCbKy_4Knuoe-15" value="M" style="text;html=1;align=center;verticalAlign=middle;resizable=0;points=[];autosize=1;strokeColor=none;" parent="1" vertex="1">
          <mxGeometry x="1199" y="1195" width="30" height="20" as="geometry" />
        </mxCell>
        <mxCell id="wmZ-JTiRJCbKy_4Knuoe-17" value="1" style="text;html=1;align=center;verticalAlign=middle;resizable=0;points=[];autosize=1;strokeColor=none;" parent="1" vertex="1">
          <mxGeometry x="1199" y="1095" width="20" height="20" as="geometry" />
        </mxCell>
        <mxCell id="wmZ-JTiRJCbKy_4Knuoe-18" value="1" style="text;html=1;align=center;verticalAlign=middle;resizable=0;points=[];autosize=1;strokeColor=none;" parent="1" vertex="1">
          <mxGeometry x="1019" y="955" width="20" height="20" as="geometry" />
        </mxCell>
        <mxCell id="OjOYmV3JiXY7nATCYOeL-2" value="agencyName" style="ellipse;whiteSpace=wrap;html=1;" parent="1" vertex="1">
          <mxGeometry x="1139" y="475" width="120" height="40" as="geometry" />
        </mxCell>
        <mxCell id="OjOYmV3JiXY7nATCYOeL-3" value="" style="endArrow=none;html=1;exitX=0.5;exitY=0;exitDx=0;exitDy=0;entryX=0.5;entryY=1;entryDx=0;entryDy=0;" parent="1" source="EvyBAaTnidb9Uw1IQr1U-3" target="OjOYmV3JiXY7nATCYOeL-2" edge="1">
          <mxGeometry width="50" height="50" relative="1" as="geometry">
            <mxPoint x="1279" y="575" as="sourcePoint" />
            <mxPoint x="1229" y="545" as="targetPoint" />
          </mxGeometry>
        </mxCell>
        <mxCell id="OjOYmV3JiXY7nATCYOeL-19" value="&lt;u&gt;clientID&lt;/u&gt;" style="ellipse;whiteSpace=wrap;html=1;" parent="1" vertex="1">
          <mxGeometry x="999" y="1035" width="120" height="40" as="geometry" />
        </mxCell>
        <mxCell id="OjOYmV3JiXY7nATCYOeL-20" value="" style="endArrow=none;html=1;entryX=1;entryY=0;entryDx=0;entryDy=0;exitX=0;exitY=1;exitDx=0;exitDy=0;" parent="1" source="P_dKjVhCxqi_HsecTU9F-4" target="OjOYmV3JiXY7nATCYOeL-19" edge="1">
          <mxGeometry width="50" height="50" relative="1" as="geometry">
            <mxPoint x="1229" y="1185" as="sourcePoint" />
            <mxPoint x="1399" y="1285" as="targetPoint" />
          </mxGeometry>
        </mxCell>
        <mxCell id="OjOYmV3JiXY7nATCYOeL-21" value="clientName" style="ellipse;whiteSpace=wrap;html=1;" parent="1" vertex="1">
          <mxGeometry x="1319" y="955" width="120" height="40" as="geometry" />
        </mxCell>
        <mxCell id="OjOYmV3JiXY7nATCYOeL-22" value="" style="endArrow=none;html=1;entryX=0;entryY=0.5;entryDx=0;entryDy=0;exitX=1;exitY=0.5;exitDx=0;exitDy=0;" parent="1" source="P_dKjVhCxqi_HsecTU9F-4" target="OjOYmV3JiXY7nATCYOeL-21" edge="1">
          <mxGeometry width="50" height="50" relative="1" as="geometry">
            <mxPoint x="1189" y="1025" as="sourcePoint" />
            <mxPoint x="1519" y="1325" as="targetPoint" />
          </mxGeometry>
        </mxCell>
        <mxCell id="OjOYmV3JiXY7nATCYOeL-25" value="1" style="text;html=1;align=center;verticalAlign=middle;resizable=0;points=[];autosize=1;strokeColor=none;" parent="1" vertex="1">
          <mxGeometry x="1199" y="735" width="20" height="20" as="geometry" />
        </mxCell>
        <mxCell id="OjOYmV3JiXY7nATCYOeL-26" value="M" style="text;html=1;align=center;verticalAlign=middle;resizable=0;points=[];autosize=1;strokeColor=none;" parent="1" vertex="1">
          <mxGeometry x="1199" y="835" width="30" height="20" as="geometry" />
        </mxCell>
        <mxCell id="OjOYmV3JiXY7nATCYOeL-29" value="clientContact" style="ellipse;whiteSpace=wrap;html=1;" parent="1" vertex="1">
          <mxGeometry x="999" y="875" width="120" height="40" as="geometry" />
        </mxCell>
        <mxCell id="OjOYmV3JiXY7nATCYOeL-30" value="" style="endArrow=none;html=1;exitX=0;exitY=0;exitDx=0;exitDy=0;entryX=1;entryY=1;entryDx=0;entryDy=0;" parent="1" source="P_dKjVhCxqi_HsecTU9F-4" target="OjOYmV3JiXY7nATCYOeL-29" edge="1">
          <mxGeometry width="50" height="50" relative="1" as="geometry">
            <mxPoint x="1159" y="935" as="sourcePoint" />
            <mxPoint x="1099" y="935" as="targetPoint" />
          </mxGeometry>
        </mxCell>
        <mxCell id="OjOYmV3JiXY7nATCYOeL-32" value="clientPassword" style="ellipse;whiteSpace=wrap;html=1;" parent="1" vertex="1">
          <mxGeometry x="1279" y="1035" width="120" height="40" as="geometry" />
        </mxCell>
        <mxCell id="OjOYmV3JiXY7nATCYOeL-33" value="" style="endArrow=none;html=1;entryX=0;entryY=0;entryDx=0;entryDy=0;exitX=1;exitY=1;exitDx=0;exitDy=0;" parent="1" source="P_dKjVhCxqi_HsecTU9F-4" target="OjOYmV3JiXY7nATCYOeL-32" edge="1">
          <mxGeometry width="50" height="50" relative="1" as="geometry">
            <mxPoint x="1359" y="955" as="sourcePoint" />
            <mxPoint x="1679" y="1285" as="targetPoint" />
          </mxGeometry>
        </mxCell>
        <mxCell id="OjOYmV3JiXY7nATCYOeL-34" value="&lt;u&gt;paymentID&lt;/u&gt;" style="ellipse;whiteSpace=wrap;html=1;" parent="1" vertex="1">
          <mxGeometry x="740" y="835" width="120" height="40" as="geometry" />
        </mxCell>
        <mxCell id="OjOYmV3JiXY7nATCYOeL-35" value="" style="endArrow=none;html=1;entryX=0.5;entryY=1;entryDx=0;entryDy=0;exitX=0.5;exitY=0;exitDx=0;exitDy=0;" parent="1" source="P_dKjVhCxqi_HsecTU9F-6" target="OjOYmV3JiXY7nATCYOeL-34" edge="1">
          <mxGeometry width="50" height="50" relative="1" as="geometry">
            <mxPoint x="890" y="915" as="sourcePoint" />
            <mxPoint x="700" y="935" as="targetPoint" />
          </mxGeometry>
        </mxCell>
        <mxCell id="OjOYmV3JiXY7nATCYOeL-36" value="paymentAmount" style="ellipse;whiteSpace=wrap;html=1;" parent="1" vertex="1">
          <mxGeometry x="600" y="875" width="120" height="40" as="geometry" />
        </mxCell>
        <mxCell id="OjOYmV3JiXY7nATCYOeL-37" value="" style="endArrow=none;html=1;entryX=1;entryY=1;entryDx=0;entryDy=0;exitX=0;exitY=0;exitDx=0;exitDy=0;" parent="1" source="P_dKjVhCxqi_HsecTU9F-6" target="OjOYmV3JiXY7nATCYOeL-36" edge="1">
          <mxGeometry width="50" height="50" relative="1" as="geometry">
            <mxPoint x="760" y="835" as="sourcePoint" />
            <mxPoint x="620" y="1015" as="targetPoint" />
          </mxGeometry>
        </mxCell>
        <mxCell id="OjOYmV3JiXY7nATCYOeL-38" value="clientID (FK)" style="ellipse;whiteSpace=wrap;html=1;" parent="1" vertex="1">
          <mxGeometry x="600" y="1035" width="120" height="40" as="geometry" />
        </mxCell>
        <mxCell id="OjOYmV3JiXY7nATCYOeL-39" value="" style="endArrow=none;html=1;exitX=0;exitY=1;exitDx=0;exitDy=0;entryX=1;entryY=0;entryDx=0;entryDy=0;" parent="1" source="P_dKjVhCxqi_HsecTU9F-6" target="OjOYmV3JiXY7nATCYOeL-38" edge="1">
          <mxGeometry width="50" height="50" relative="1" as="geometry">
            <mxPoint x="890" y="995" as="sourcePoint" />
            <mxPoint x="670" y="1095" as="targetPoint" />
          </mxGeometry>
        </mxCell>
        <mxCell id="OjOYmV3JiXY7nATCYOeL-42" value="" style="endArrow=none;html=1;exitX=0.5;exitY=1;exitDx=0;exitDy=0;entryX=0.5;entryY=1;entryDx=0;entryDy=0;" parent="1" source="P_dKjVhCxqi_HsecTU9F-6" target="OjOYmV3JiXY7nATCYOeL-43" edge="1">
          <mxGeometry width="50" height="50" relative="1" as="geometry">
            <mxPoint x="800" y="1195" as="sourcePoint" />
            <mxPoint x="820" y="1135" as="targetPoint" />
          </mxGeometry>
        </mxCell>
        <mxCell id="OjOYmV3JiXY7nATCYOeL-43" value="cargoID (FK)" style="ellipse;whiteSpace=wrap;html=1;" parent="1" vertex="1">
          <mxGeometry x="740" y="1075" width="120" height="40" as="geometry" />
        </mxCell>
        <mxCell id="OjOYmV3JiXY7nATCYOeL-44" value="&lt;u&gt;cargoID&lt;/u&gt;" style="ellipse;whiteSpace=wrap;html=1;" parent="1" vertex="1">
          <mxGeometry x="1000" y="1235" width="120" height="40" as="geometry" />
        </mxCell>
        <mxCell id="OjOYmV3JiXY7nATCYOeL-45" value="" style="endArrow=none;html=1;entryX=1;entryY=1;entryDx=0;entryDy=0;exitX=0;exitY=0;exitDx=0;exitDy=0;" parent="1" source="P_dKjVhCxqi_HsecTU9F-5" target="OjOYmV3JiXY7nATCYOeL-44" edge="1">
          <mxGeometry width="50" height="50" relative="1" as="geometry">
            <mxPoint x="1118" y="1365" as="sourcePoint" />
            <mxPoint x="1198" y="1235" as="targetPoint" />
          </mxGeometry>
        </mxCell>
        <mxCell id="OjOYmV3JiXY7nATCYOeL-46" value="&lt;span&gt;agencyID (FK)&lt;/span&gt;" style="ellipse;whiteSpace=wrap;html=1;" parent="1" vertex="1">
          <mxGeometry x="1280" y="1235" width="120" height="40" as="geometry" />
        </mxCell>
        <mxCell id="OjOYmV3JiXY7nATCYOeL-47" value="" style="endArrow=none;html=1;entryX=0;entryY=1;entryDx=0;entryDy=0;exitX=1;exitY=0;exitDx=0;exitDy=0;" parent="1" source="P_dKjVhCxqi_HsecTU9F-5" target="OjOYmV3JiXY7nATCYOeL-46" edge="1">
          <mxGeometry width="50" height="50" relative="1" as="geometry">
            <mxPoint x="1408" y="1325" as="sourcePoint" />
            <mxPoint x="1638" y="1525" as="targetPoint" />
          </mxGeometry>
        </mxCell>
        <mxCell id="OjOYmV3JiXY7nATCYOeL-52" value="" style="endArrow=none;html=1;entryX=0;entryY=0.5;entryDx=0;entryDy=0;exitX=1;exitY=0.5;exitDx=0;exitDy=0;" parent="1" source="P_dKjVhCxqi_HsecTU9F-5" target="OjOYmV3JiXY7nATCYOeL-53" edge="1">
          <mxGeometry width="50" height="50" relative="1" as="geometry">
            <mxPoint x="1348" y="1405" as="sourcePoint" />
            <mxPoint x="1808" y="1675" as="targetPoint" />
          </mxGeometry>
        </mxCell>
        <mxCell id="OjOYmV3JiXY7nATCYOeL-53" value="&lt;span&gt;cargoSource&lt;/span&gt;" style="ellipse;whiteSpace=wrap;html=1;" parent="1" vertex="1">
          <mxGeometry x="1319" y="1315" width="120" height="40" as="geometry" />
        </mxCell>
        <mxCell id="OjOYmV3JiXY7nATCYOeL-54" value="" style="endArrow=none;html=1;entryX=0.5;entryY=0;entryDx=0;entryDy=0;exitX=0.5;exitY=1;exitDx=0;exitDy=0;" parent="1" source="P_dKjVhCxqi_HsecTU9F-5" target="OjOYmV3JiXY7nATCYOeL-55" edge="1">
          <mxGeometry width="50" height="50" relative="1" as="geometry">
            <mxPoint x="1198" y="1455" as="sourcePoint" />
            <mxPoint x="1728" y="1735" as="targetPoint" />
          </mxGeometry>
        </mxCell>
        <mxCell id="OjOYmV3JiXY7nATCYOeL-55" value="cargoDestination" style="ellipse;whiteSpace=wrap;html=1;" parent="1" vertex="1">
          <mxGeometry x="1139" y="1415" width="120" height="40" as="geometry" />
        </mxCell>
        <mxCell id="OjOYmV3JiXY7nATCYOeL-60" value="" style="endArrow=none;html=1;entryX=1;entryY=0.5;entryDx=0;entryDy=0;exitX=0;exitY=0.5;exitDx=0;exitDy=0;" parent="1" source="P_dKjVhCxqi_HsecTU9F-5" edge="1">
          <mxGeometry width="50" height="50" relative="1" as="geometry">
            <mxPoint x="1258" y="1315" as="sourcePoint" />
            <mxPoint x="1058.9999999999932" y="1335" as="targetPoint" />
          </mxGeometry>
        </mxCell>
        <mxCell id="OjOYmV3JiXY7nATCYOeL-61" value="&lt;span&gt;clientID (FK)&lt;/span&gt;" style="ellipse;whiteSpace=wrap;html=1;" parent="1" vertex="1">
          <mxGeometry x="969" y="1315" width="120" height="40" as="geometry" />
        </mxCell>
        <mxCell id="OjOYmV3JiXY7nATCYOeL-64" value="agencyEmail" style="ellipse;whiteSpace=wrap;html=1;" parent="1" vertex="1">
          <mxGeometry x="1279" y="515" width="120" height="40" as="geometry" />
        </mxCell>
        <mxCell id="OjOYmV3JiXY7nATCYOeL-65" value="" style="endArrow=none;html=1;entryX=0;entryY=1;entryDx=0;entryDy=0;exitX=1;exitY=0;exitDx=0;exitDy=0;" parent="1" source="EvyBAaTnidb9Uw1IQr1U-3" target="OjOYmV3JiXY7nATCYOeL-64" edge="1">
          <mxGeometry width="50" height="50" relative="1" as="geometry">
            <mxPoint x="1259" y="755" as="sourcePoint" />
            <mxPoint x="1369" y="775" as="targetPoint" />
          </mxGeometry>
        </mxCell>
        <mxCell id="OjOYmV3JiXY7nATCYOeL-66" value="" style="endArrow=none;html=1;exitX=1;exitY=0;exitDx=0;exitDy=0;entryX=0;entryY=1;entryDx=0;entryDy=0;" parent="1" source="P_dKjVhCxqi_HsecTU9F-4" target="v7z6RQ5eIqqdi5vRTY0D-1" edge="1">
          <mxGeometry width="50" height="50" relative="1" as="geometry">
            <mxPoint x="1379" y="955" as="sourcePoint" />
            <mxPoint x="1276.5735931288073" y="909.1421356237315" as="targetPoint" />
          </mxGeometry>
        </mxCell>
        <mxCell id="OjOYmV3JiXY7nATCYOeL-100" value="agencyName (FK)" style="ellipse;whiteSpace=wrap;html=1;" parent="1" vertex="1">
          <mxGeometry x="560" y="955" width="120" height="40" as="geometry" />
        </mxCell>
        <mxCell id="OjOYmV3JiXY7nATCYOeL-101" value="" style="endArrow=none;html=1;entryX=1;entryY=0.5;entryDx=0;entryDy=0;exitX=0;exitY=0.5;exitDx=0;exitDy=0;" parent="1" source="P_dKjVhCxqi_HsecTU9F-6" target="OjOYmV3JiXY7nATCYOeL-100" edge="1">
          <mxGeometry width="50" height="50" relative="1" as="geometry">
            <mxPoint x="800" y="950" as="sourcePoint" />
            <mxPoint x="820" y="900" as="targetPoint" />
          </mxGeometry>
        </mxCell>
        <mxCell id="OjOYmV3JiXY7nATCYOeL-104" value="&lt;font style=&quot;font-size: 24px&quot;&gt;Entity Relationship Diagram&lt;/font&gt;" style="text;html=1;align=center;verticalAlign=middle;resizable=0;points=[];autosize=1;strokeColor=none;" parent="1" vertex="1">
          <mxGeometry x="845" y="1487" width="310" height="20" as="geometry" />
        </mxCell>
        <mxCell id="v7z6RQ5eIqqdi5vRTY0D-1" value="agencyName" style="ellipse;whiteSpace=wrap;html=1;" parent="1" vertex="1">
          <mxGeometry x="1280" y="875" width="120" height="40" as="geometry" />
        </mxCell>
        <mxCell id="zxHA0_PQBxcuLgUq1EKx-2" value="&lt;u&gt;adminID&lt;/u&gt;" style="ellipse;whiteSpace=wrap;html=1;" parent="1" vertex="1">
          <mxGeometry x="1263" y="675" width="120" height="40" as="geometry" />
        </mxCell>
        <mxCell id="zxHA0_PQBxcuLgUq1EKx-4" value="" style="endArrow=none;html=1;entryX=1;entryY=1;entryDx=0;entryDy=0;exitX=0;exitY=0;exitDx=0;exitDy=0;" parent="1" source="zxHA0_PQBxcuLgUq1EKx-2" target="EvyBAaTnidb9Uw1IQr1U-3" edge="1">
          <mxGeometry width="50" height="50" relative="1" as="geometry">
            <mxPoint x="1149" y="625" as="sourcePoint" />
            <mxPoint x="1028" y="625" as="targetPoint" />
          </mxGeometry>
        </mxCell>
        <mxCell id="zxHA0_PQBxcuLgUq1EKx-5" value="&lt;u&gt;agencyLocation&lt;/u&gt;" style="ellipse;whiteSpace=wrap;html=1;" parent="1" vertex="1">
          <mxGeometry x="1319" y="595" width="120" height="40" as="geometry" />
        </mxCell>
        <mxCell id="zxHA0_PQBxcuLgUq1EKx-6" value="" style="endArrow=none;html=1;entryX=1;entryY=0.5;entryDx=0;entryDy=0;exitX=0;exitY=0.5;exitDx=0;exitDy=0;" parent="1" source="zxHA0_PQBxcuLgUq1EKx-5" target="EvyBAaTnidb9Uw1IQr1U-3" edge="1">
          <mxGeometry width="50" height="50" relative="1" as="geometry">
            <mxPoint x="1199" y="545" as="sourcePoint" />
            <mxPoint x="1309" y="555" as="targetPoint" />
          </mxGeometry>
        </mxCell>
      </root>
    </mxGraphModel>
  </diagram>
</mxfile>
